{"title":"Tekken.2010.CUSTOM.SWESUB.DVDRip.XviD.AC3-Zen_Bud","uid":5762369,"size":1469342018,"categoryP":"video","categoryS":"movies","magnet":"?xt=urn:btih:1a4bc4bac99250d10aa2ff409f2b68d397897cb7&amp;dn=Tekken.2010.CUSTOM.SWESUB.DVDRip.XviD.AC3-Zen_Bud&amp;tr=udp%3A%2F%2Ftracker.openbittorrent.com%3A80&amp;tr=udp%3A%2F%2Fopen.demonii.com%3A1337&amp;tr=udp%3A%2F%2Ftracker.coppersurfer.tk%3A6969&amp;tr=udp%3A%2F%2Fexodus.desync.com%3A6969","seeders":2,"leechers":0,"uploader":"Zen_Bud","files":-1,"time":1281772817,"description":"General\nComplete name                    : Tekken.2010.avi\nFormat                           : AVI\nFile size                        : 1.37 GiB\nDuration                         : 1h 27mn\nOverall bit rate                 : 2 239 Kbps\n\nVideo\n\nFormat                           : MPEG-4 Visual\nCodec ID/Hint                    : XviD\nDuration                         : 1h 27mn\nBit rate                         : 1 780 Kbps\nWidth                            : 720 pixels\nHeight                           : 574 pixels\nDisplay aspect ratio             : 4:3\nStream size                      : 1.09 GiB (80%)\nWriting library                  : XviD 1.1.2 (UTC 2006-11-01)\n\nAudio\n\nFormat                           : AC-3\nDuration                         : 1h 27mn\nBit rate                         : 448 Kbps\nChannel(s)                       : 6 channels\nChannel positions                : Front: L C R, Side: L R, LFE\nSampling rate                    : 48.0 KHz\nStream size                      : 280 MiB (20%)\n\n\nText&lt;&gt;GM4Y---THX :D","torrent":{"xt":"urn:btih:1a4bc4bac99250d10aa2ff409f2b68d397897cb7","amp;dn":"Tekken.2010.CUSTOM.SWESUB.DVDRip.XviD.AC3-Zen_Bud","amp;tr":["udp%3A%2F%2Ftracker.openbittorrent.com%3A80","udp%3A%2F%2Fopen.demonii.com%3A1337","udp%3A%2F%2Ftracker.coppersurfer.tk%3A6969","udp%3A%2F%2Fexodus.desync.com%3A6969"],"infoHash":"1a4bc4bac99250d10aa2ff409f2b68d397897cb7","infoHashBuffer":{"type":"Buffer","data":[26,75,196,186,201,146,80,209,10,162,255,64,159,43,104,211,151,137,124,183]},"announce":[],"urlList":[]}}